<mxfile host="app.diagrams.net" modified="2024-04-23T08:43:42.489Z" agent="Mozilla/5.0 (Macintosh; Intel Mac OS X 10_15_7) AppleWebKit/537.36 (KHTML, like Gecko) Chrome/124.0.0.0 Safari/537.36" version="24.2.8" etag="LhqB9edFtxNAzCvN1Cyv" type="github">
  <diagram name="第 1 页" id="bsrdlGBzL4-s972n8e0l">
    <mxGraphModel>
      <root>
        <mxCell id="0" />
        <mxCell id="1" parent="0" />
      </root>
    </mxGraphModel>
  </diagram>
</mxfile>
